<?xml version="1.0" encoding="UTF-8"?>
<svg id="Layer_1" data-name="Layer 1" xmlns="http://www.w3.org/2000/svg" viewBox="0 0 1500 1500">
  <defs>
    <style>
      .cls-1 {
        fill: #fff;
      }
    </style>
  </defs>
  <path class="cls-1" d="M1139.84,598.33c-83.76,0-151.67,67.9-151.67,151.67s67.9,151.67,151.67,151.67,151.67-67.9,151.67-151.67-67.9-151.67-151.67-151.67ZM1091.64,669.92c0-3.65,2.96-6.61,6.61-6.61h16.52c3.65,0,6.61,2.96,6.61,6.61v16.52c0,3.65-2.96,6.61-6.61,6.61h-16.52c-3.65,0-6.61-2.96-6.61-6.61v-16.52ZM1049.56,669.92c0-3.65,2.96-6.61,6.61-6.61h16.52c3.65,0,6.61,2.96,6.61,6.61v16.52c0,3.65-2.96,6.61-6.61,6.61h-16.52c-3.65,0-6.61-2.96-6.61-6.61v-16.52ZM1230.08,773.24c-1.65,18.77-7.26,33.96-16.76,45.27-12.46,14.84-30.58,22.37-53.87,22.37-21.17,0-38.11-6.33-50.34-18.81-13.62-13.9-20.27-34.46-19.76-61.1v-24.04h-27.46c-6.81,0-12.34-5.52-12.34-12.34v-8.4c0-6.81,5.52-12.34,12.34-12.34h76.63v-32.4c0-6.81,5.52-12.34,12.34-12.34h8.4c6.81,0,12.34,5.52,12.34,12.34v53.49c0,1.08-.18,2.12-.5,3.1-1.49,5.13-6.22,8.89-11.84,8.89h-33.96v24.58c-.24,11.49,1.22,26.96,9.49,35.4,5.29,5.4,13.36,8.02,24.66,8.02,16.53,0,31.95-4.34,34.74-33.66.55-5.73,5.32-10.13,11.07-10.13h13.73c6.53,0,11.65,5.6,11.08,12.1Z"/>
  <g>
    <path class="cls-1" d="M290.34,845.62c-12.86,0-24.32-1.48-34.37-4.45-10.06-2.97-18.63-7.29-25.72-12.98-7.09-5.69-12.49-12.61-16.2-20.77-3.71-8.16-5.56-17.43-5.56-27.82,0-7.42,1.03-15.66,3.09-24.73,2.06-9.06,4.9-17.97,8.53-26.71l21.27,6.43c-3.13,6.92-5.69,13.97-7.67,21.14-1.98,7.17-2.97,13.48-2.97,18.92,0,11.38,4.45,20.23,13.35,26.58,8.9,6.34,21.27,9.52,37.09,9.52h18.3c15.49,0,28.11-2.14,37.83-6.43,9.72-4.29,16.15-10.39,19.29-18.3l-56.88-8.66v-32.39l30.17,4.44c10.38,1.41,19.37,2.46,26.95,3.16,7.58.7,14.34,1.05,20.28,1.05v14.2l3.71,5.48c0,11.39-2.06,21.58-6.18,30.58-4.12,8.99-10.06,16.59-17.8,22.78-7.75,6.19-17.23,10.89-28.44,14.11-11.21,3.21-23.91,4.83-38.08,4.83ZM269.82,897.55c-3.96,0-7.21-1.2-9.77-3.59-2.56-2.39-3.83-6.22-3.83-11.5s1.28-9.36,3.83-11.75c2.55-2.39,5.81-3.59,9.77-3.59h4.2c3.96,0,7.21,1.2,9.77,3.59,2.55,2.39,3.83,6.31,3.83,11.75s-1.28,9.11-3.83,11.5c-2.56,2.39-5.81,3.59-9.77,3.59h-4.2ZM306.67,897.55c-3.96,0-7.21-1.2-9.77-3.59-2.56-2.39-3.83-6.22-3.83-11.5s1.28-9.36,3.83-11.75c2.55-2.39,5.81-3.59,9.77-3.59h4.2c3.96,0,7.21,1.2,9.77,3.59,2.55,2.39,3.83,6.31,3.83,11.75s-1.28,9.11-3.83,11.5c-2.56,2.39-5.81,3.59-9.77,3.59h-4.2Z"/>
    <path class="cls-1" d="M370.47,760.55l6.68-6.68h6.92c6.92,0,11.99-1.52,15.21-4.57,3.21-3.05,4.82-7.7,4.82-13.97v-132.05h26.46v132.05c0,12.36,6.1,18.55,18.3,18.55h8.66v25.72l-6.68,6.68c-12.86,0-22.79-2.47-29.8-7.42-7.01-4.95-11.67-12.69-13.97-23.25h-1.48c-1.98,10.88-5.69,18.71-11.13,23.49-5.44,4.78-13.44,7.17-23.99,7.17v-25.72Z"/>
    <path class="cls-1" d="M450.83,760.55l6.68-6.68c4.78,0,8.74-.08,11.87-.25,3.13-.16,6.1-.58,8.9-1.24-.17-1.15-.29-2.31-.37-3.46-.09-1.15-.12-2.39-.12-3.71,0-18.96,11.62-35.28,34.87-48.96l14.84-8.9h28.69l19.04,50.94c2.31,6.27,4.82,10.43,7.54,12.49,2.72,2.06,6.8,3.09,12.24,3.09h6.68v25.72l-6.68,6.68c-9.89,0-17.68-1.52-23.37-4.57-5.69-3.05-10.59-8.04-14.71-14.96l-1.48.25v19.29h-30.91c-11.54,0-20.9-2.14-28.07-6.43-7.17-4.29-12.24-9.97-15.21-17.06h-1.98c-4.29,15.66-13.77,23.49-28.44,23.49v-25.72ZM498.56,742.01c0,4.29,1.69,7.34,5.07,9.15,3.38,1.82,7.95,2.72,13.72,2.72h33.63l-14.59-38.58-17.31,7.67c-6.6,2.81-11.67,5.77-15.21,8.9-3.55,3.13-5.32,6.51-5.32,10.14Z"/>
    <path class="cls-1" d="M595,760.55l6.68-6.68h14.59c8.57,0,16.4-.16,23.49-.49,7.09-.33,13.85-1.03,20.28-2.1,6.43-1.07,12.9-2.67,19.41-4.81,6.51-2.14,13.64-5.1,21.39-8.88l13.11-6.41v-1.23l-38.58-8.19-41.54-10.42v19.54h-24.97v-19.04c0-20.11,9.23-30.17,27.7-30.17,1.15,0,2.39.04,3.71.13,1.32.08,2.84.29,4.58.62s3.83.79,6.31,1.38,5.44,1.38,8.9,2.37l51.44,13.5c7.42,1.83,14.71,3.25,21.88,4.25,7.17,1,13.97,1.5,20.4,1.5h4.7v32.39h-19.54l-26.21,17.06c-10.72,6.92-20.28,12.49-28.69,16.69s-16.36,7.38-23.86,9.52c-7.5,2.14-14.76,3.55-21.76,4.2-7.01.66-14.38.99-22.13.99h-21.27v-25.72ZM678.34,838.2c-3.96,0-7.21-1.2-9.77-3.59-2.56-2.39-3.83-6.22-3.83-11.5s1.28-9.36,3.83-11.75c2.55-2.39,5.81-3.59,9.77-3.59h4.2c3.96,0,7.21,1.19,9.77,3.59,2.55,2.39,3.83,6.3,3.83,11.75s-1.28,9.11-3.83,11.5c-2.56,2.39-5.81,3.59-9.77,3.59h-4.2Z"/>
    <path class="cls-1" d="M738.67,813.22h9.64c15.83,0,27.12-3.59,33.88-10.76,6.76-7.17,10.05-17.6,9.89-31.28,0-4.12-.25-8.45-.74-12.98-.5-4.53-1.16-9.19-1.98-13.97l-5.19-31.41,23.99-3.96,3.71,21.76c1.48,8.25,2.47,15.99,2.97,23.24h23v25.72l-6.68,6.68h-16.32c-1.16,8.9-3.38,16.98-6.68,24.23-3.3,7.25-7.67,13.48-13.11,18.67-5.44,5.19-12.04,9.23-19.78,12.12-7.75,2.88-16.65,4.33-26.71,4.33h-9.89v-32.39Z"/>
    <path class="cls-1" d="M831.16,760.55l6.68-6.68h6.18c11.54,0,19.49-1.19,23.86-3.59,4.37-2.39,6.55-6.72,6.55-12.98,0-2.64-.21-5.97-.62-10.02-.41-4.04-1.2-9.44-2.35-16.2l-3.96-22.26,24.23-3.96,3.46,22.26c.82,5.61,1.48,11.09,1.98,16.44.49,5.36.74,9.93.74,13.72,0,16.82-4.29,29.18-12.86,37.09-8.57,7.91-22.26,11.87-41.05,11.87h-12.86v-25.72ZM855.39,662.13c-3.96,0-7.21-1.19-9.77-3.59-2.56-2.39-3.83-6.22-3.83-11.5s1.27-9.35,3.83-11.75c2.55-2.39,5.81-3.59,9.77-3.59h4.2c3.96,0,7.21,1.2,9.77,3.59,2.55,2.39,3.83,6.31,3.83,11.75s-1.28,9.11-3.83,11.5c-2.56,2.39-5.81,3.59-9.77,3.59h-4.2ZM892.24,662.13c-3.96,0-7.21-1.19-9.77-3.59-2.56-2.39-3.83-6.22-3.83-11.5s1.28-9.35,3.83-11.75c2.55-2.39,5.81-3.59,9.77-3.59h4.2c3.96,0,7.21,1.2,9.77,3.59,2.55,2.39,3.83,6.31,3.83,11.75s-1.28,9.11-3.83,11.5c-2.56,2.39-5.81,3.59-9.77,3.59h-4.2Z"/>
  </g>
</svg>